# Blender v2.83.9 OBJ File: ''
# www.blender.org
mtllib untitled.mtl
o Object_196_Object_96
v -1.121216 -0.992927 -0.007319
v -1.121216 -0.992927 -0.007319
v -1.121216 -0.992927 -0.007319
v -1.121216 -0.992927 0.007319
v -1.121216 -0.992927 0.007319
v -1.121216 -0.992927 0.007319
v -1.121216 0.995060 -0.007319
v -1.121216 0.995060 -0.007319
v -1.121216 0.995060 -0.007319
v -1.121216 0.995060 0.007319
v -1.121216 0.995060 0.007319
v -1.121216 0.995060 0.007319
v -1.079794 -1.078085 -0.007319
v -1.079794 -1.078085 -0.007319
v -1.079794 -1.078085 -0.007319
v -1.079794 -1.078085 0.007319
v -1.079794 -1.078085 0.007319
v -1.079794 -1.078085 0.007319
v -1.079088 1.073820 -0.007319
v -1.079088 1.073820 -0.007319
v -1.079088 1.073820 -0.007319
v -1.079088 1.073820 0.007319
v -1.079088 1.073820 0.007319
v -1.079088 1.073820 0.007319
v -0.990467 -1.124719 -0.007319
v -0.990467 -1.124719 -0.007319
v -0.990467 -1.124719 -0.007319
v -0.990467 -1.124719 0.007319
v -0.990467 -1.124719 0.007319
v -0.990467 -1.124719 0.007319
v -0.990467 1.126852 -0.007319
v -0.990467 1.126852 -0.007319
v -0.990467 1.126852 -0.007319
v -0.990467 1.126852 0.007319
v -0.990467 1.126852 0.007319
v -0.990467 1.126852 0.007319
v 0.990467 -1.124719 -0.007319
v 0.990467 -1.124719 -0.007319
v 0.990467 -1.124719 -0.007319
v 0.990467 -1.124719 0.007319
v 0.990467 -1.124719 0.007319
v 0.990467 -1.124719 0.007319
v 0.990467 1.126852 -0.007319
v 0.990467 1.126852 -0.007319
v 0.990467 1.126852 -0.007319
v 0.990467 1.126852 0.007319
v 0.990467 1.126852 0.007319
v 0.990467 1.126852 0.007319
v 1.079088 1.073820 -0.007319
v 1.079088 1.073820 -0.007319
v 1.079088 1.073820 -0.007319
v 1.079088 1.073820 0.007319
v 1.079088 1.073820 0.007319
v 1.079088 1.073820 0.007319
v 1.079794 -1.078085 -0.007319
v 1.079794 -1.078085 -0.007319
v 1.079794 -1.078085 -0.007319
v 1.079794 -1.078085 0.007319
v 1.079794 -1.078085 0.007319
v 1.079794 -1.078085 0.007319
v 1.121216 -0.992927 -0.007319
v 1.121216 -0.992927 -0.007319
v 1.121216 -0.992927 -0.007319
v 1.121216 -0.992927 0.007319
v 1.121216 -0.992927 0.007319
v 1.121216 -0.992927 0.007319
v 1.121216 0.995060 -0.007319
v 1.121216 0.995060 -0.007319
v 1.121216 0.995060 -0.007319
v 1.121216 0.995060 0.007319
v 1.121216 0.995060 0.007319
v 1.121216 0.995060 0.007319
vt 0.100201 0.702851
vt 0.100201 0.587399
vt 0.099350 0.587399
vt 0.099350 0.702851
vt 0.096800 0.587528
vt 0.096800 0.702579
vt 0.097650 0.702579
vt 0.097650 0.587528
vt 0.221117 0.718864
vt 0.221117 0.603813
vt 0.220267 0.603813
vt 0.220267 0.718864
vt 0.099350 0.703163
vt 0.099350 0.587711
vt 0.098500 0.587711
vt 0.098500 0.703163
vt 0.204700 0.596321
vt 0.207147 0.716356
vt 0.207147 0.600896
vt 0.204741 0.721302
vt 0.199553 0.724011
vt 0.199553 0.593241
vt 0.084502 0.593241
vt 0.084502 0.724011
vt 0.079355 0.596321
vt 0.079314 0.721302
vt 0.076908 0.600896
vt 0.076908 0.716356
vt 0.382425 0.128070
vt 0.380019 0.007664
vt 0.380019 0.123124
vt 0.382466 0.003089
vt 0.387613 0.130778
vt 0.387613 0.000009
vt 0.502664 0.130778
vt 0.502664 0.000009
vt 0.507852 0.128070
vt 0.507811 0.003089
vt 0.510258 0.007664
vt 0.510258 0.123124
vt 0.100201 0.587399
vt 0.100201 0.582795
vt 0.099350 0.582795
vt 0.099350 0.587399
vt 0.096800 0.582340
vt 0.096800 0.587528
vt 0.097650 0.587528
vt 0.097650 0.582340
vt 0.100201 0.707767
vt 0.100201 0.702851
vt 0.099350 0.702851
vt 0.099350 0.707767
vt 0.221117 0.724011
vt 0.221117 0.718864
vt 0.220267 0.718864
vt 0.220267 0.724011
vt 0.099350 0.707767
vt 0.099350 0.703163
vt 0.098500 0.703163
vt 0.098500 0.707767
vt 0.096800 0.702579
vt 0.096800 0.707767
vt 0.097650 0.707767
vt 0.097650 0.702579
vt 0.099350 0.587711
vt 0.099350 0.582795
vt 0.098500 0.582795
vt 0.098500 0.587711
vt 0.164372 0.609127
vt 0.164372 0.603980
vt 0.163521 0.603980
vt 0.163521 0.609127
vn 1.0000 0.0000 0.0000
vn 0.0000 -1.0000 0.0000
vn 0.0000 1.0000 0.0000
vn -1.0000 0.0000 0.0000
vn 0.0000 0.0000 -1.0000
vn 0.0000 0.0000 1.0000
vn 0.8818 0.4717 0.0000
vn -0.4628 -0.8865 0.0000
vn 0.8993 -0.4374 0.0000
vn 0.5135 0.8581 0.0000
vn -0.8818 0.4717 0.0000
vn 0.4628 -0.8865 0.0000
vn -0.8993 -0.4374 0.0000
vn -0.5135 0.8581 0.0000
usemtl Dirty
s off
f 63/1/1 69/2/1 72/3/1
f 63/1/1 72/3/1 66/4/1
f 26/5/2 37/6/2 40/7/2
f 26/5/2 40/7/2 29/8/2
f 44/9/3 33/10/3 36/11/3
f 44/9/3 36/11/3 47/12/3
f 7/13/4 1/14/4 4/15/4
f 7/13/4 4/15/4 10/16/4
f 21/17/5 3/18/5 9/19/5
f 3/18/5 21/17/5 15/20/5
f 15/20/5 21/17/5 27/21/5
f 27/21/5 21/17/5 32/22/5
f 27/21/5 32/22/5 43/23/5
f 27/21/5 43/23/5 38/24/5
f 38/24/5 43/23/5 49/25/5
f 38/24/5 49/25/5 55/26/5
f 55/26/5 49/25/5 67/27/5
f 55/26/5 67/27/5 61/28/5
f 18/29/6 12/30/6 6/31/6
f 12/30/6 18/29/6 24/32/6
f 24/32/6 18/29/6 30/33/6
f 24/32/6 30/33/6 35/34/6
f 35/34/6 30/33/6 41/35/6
f 35/34/6 41/35/6 46/36/6
f 46/36/6 41/35/6 58/37/6
f 46/36/6 58/37/6 52/38/6
f 52/38/6 58/37/6 70/39/6
f 70/39/6 58/37/6 64/40/6
s 1
f 68/41/7 51/42/7 54/43/7
f 68/41/7 54/43/7 71/44/7
f 14/45/8 25/46/8 28/47/8
f 14/45/8 28/47/8 17/48/8
f 57/49/9 62/50/9 65/51/9
f 57/49/9 65/51/9 60/52/9
f 50/53/10 45/54/10 48/55/10
f 50/53/10 48/55/10 53/56/10
f 19/57/11 8/58/11 11/59/11
f 19/57/11 11/59/11 22/60/11
f 39/61/12 56/62/12 59/63/12
f 39/61/12 59/63/12 42/64/12
f 2/65/13 13/66/13 16/67/13
f 2/65/13 16/67/13 5/68/13
f 31/69/14 20/70/14 23/71/14
f 31/69/14 23/71/14 34/72/14
